<?xml version="1.0" encoding="UTF-8"?>
<svg width="18px" height="18px" viewBox="0 0 18 18" version="1.1" xmlns="http://www.w3.org/2000/svg" xmlns:xlink="http://www.w3.org/1999/xlink">
    <title>cross-icon</title>
    <g id="Page-1" stroke="none" stroke-width="1" fill="none" fill-rule="evenodd">
        <g id="cross-icon" fill="#FFFFFF">
            <path d="M17,0 C17.5522847,-1.01453063e-16 18,0.44771525 18,1 L18,17 C18,17.5522847 17.5522847,18 17,18 L1,18 C0.44771525,18 6.76353751e-17,17.5522847 0,17 L0,1 C-6.76353751e-17,0.44771525 0.44771525,1.01453063e-16 1,0 L17,0 Z M9.99184779,2.25 L8.38315217,2.25 L8.383125,8.389125 L2.25,8.38924633 L2.25,9.99954045 L8.383125,9.99937503 L8.38315217,15.9375 L9.99184779,15.9375 L9.9916875,9.99937503 L16.125,9.99954045 L16.125,8.38924633 L9.9916875,8.389125 L9.99184779,2.25 Z" id="Combined-Shape"></path>
        </g>
    </g>
</svg>