<?xml version="1.0" encoding="UTF-8"?>
<svg width="375px" height="96px" viewBox="0 0 375 96" version="1.1" xmlns="http://www.w3.org/2000/svg" xmlns:xlink="http://www.w3.org/1999/xlink">
    <title>fdc-logo</title>
    <g id="Page-1" stroke="none" stroke-width="1" fill="none" fill-rule="evenodd">
        <g id="fdc-logo" fill="#782B88">
            <path d="M363.59,18 L363.59,11.94 L365.86,11.94 L365.86,10.86 L360.08,10.86 L360.08,11.94 L362.34,11.94 L362.34,18 L363.59,18 Z M367.86,18 L367.86,12.49 L367.88,12.49 L369.86,18 L370.89,18 L372.87,12.49 L372.89,12.49 L372.89,18 L374.08,18 L374.08,10.86 L372.34,10.86 L370.42,16.45 L370.4,16.45 L368.43,10.86 L366.67,10.86 L366.67,18 L367.86,18 Z" id="TM" fill-rule="nonzero"></path>
            <path d="M130.117808,85 C137.150685,85 143.29863,81.0470588 146,74.6941176 L138.50137,74.6941176 C135.706849,77.6588235 133.284932,78.7882353 129.978082,78.7882353 C123.643836,78.7882353 118.427397,73.4235294 118.427397,66.9294118 C118.427397,60.3882353 123.271233,55.2117647 129.838356,55.2117647 C133.843836,55.2117647 136.545205,56.5294118 138.873973,59.5882353 L146,59.5882353 C142.972603,52.8588235 136.778082,49 129.69863,49 C119.964384,49 112,57.0470588 112,66.8823529 C112,76.9058824 120.057534,85 130.117808,85 Z M165.187013,85 C175.238961,85 183,77.1411765 183,66.9764706 C183,57.0470588 175.098701,49 165.233766,49 C154.948052,49 147,56.8588235 147,67.0235294 C147,77.0470588 155.041558,85 165.187013,85 Z M164.639676,79 C158.121457,79 153,73.7305389 153,67.0239521 C153,60.1736527 158.02834,55 164.639676,55 C171.018219,55 176,60.2694611 176,67.0718563 C176,73.8742515 171.157895,79 164.639676,79 Z M192.404007,84 L192.404007,58.5669824 L206.84808,84 L214,84 L214,49 L207.595993,49 L207.595993,74.4803789 L193.292154,49 L186,49 L186,84 L192.404007,84 Z M228.668058,85 C235.05428,85 240,80.1529412 240,73.8470588 C240,69.1411765 238.031315,66.0823529 230.82881,63.4470588 C227.467641,62.2235294 227.371608,62.1764706 226.891441,61.8941176 C225.59499,61.0941176 224.922756,60.0117647 224.922756,58.7411765 C224.922756,56.6705882 226.411273,55.2117647 228.572025,55.2117647 C230.780793,55.2117647 232.125261,56.5294118 232.317328,58.8823529 L239.135699,58.8823529 C238.799582,52.7647059 234.334029,49 228.620042,49 C222.906054,49 218.296451,53.3764706 218.296451,58.8823529 C218.296451,63.2588235 220.93737,66.6 225.691023,68.3411765 C229.541089,69.7657754 230.498249,70.1193 231.297613,70.6389269 L231.429849,70.7272816 C231.561561,70.8175984 231.693111,70.9144385 231.837161,71.0235294 C232.893528,71.8235294 233.469729,73.1411765 233.469729,74.5529412 C233.469729,77.0470588 231.501044,78.7882353 228.668058,78.7882353 C225.73904,78.7882353 224.154489,77.3764706 223.866388,74.4588235 L217,74.4588235 C217.5762,81.0470588 222.425887,85 228.668058,85 Z M254.476954,85 C261.206413,85 266,80.5784574 266,71.7819149 L266,50 L259.685371,50 L259.685371,71.7819149 C259.685371,77.1808511 257.657315,78.856383 254.523046,78.856383 C251.296593,78.856383 249.314629,77.1343085 249.314629,71.7819149 L249.314629,50 L243,50 L243,71.7819149 C243,80.5319149 247.793587,85 254.476954,85 Z M277.388601,84 L277.388601,57.7618403 L286.388601,84 L291.611399,84 L300.611399,57.7618403 L300.611399,84 L307,84 L307,49 L298.233161,49 L289.046632,75.5223275 L279.766839,49 L271,49 L271,84 L277.388601,84 Z M331,84 L331,77.7956698 L318.556675,77.7956698 L318.556675,69.6495264 L330.473552,69.6495264 L330.473552,63.4451962 L318.556675,63.4451962 L318.556675,55.2043302 L331,55.2043302 L331,49 L312,49 L312,84 L331,84 Z M341.576,84 L341.576,70.5967524 L350.888,84 L359,84 L349.4,71.0703654 C355.784,69.5074425 358.664,65.6711773 358.664,60.2246279 C358.664,56.6725304 357.368,53.6414073 354.92,51.6048714 C352.616,49.6630582 350.072,49 345.224,49 L335,49 L335,84 L341.576,84 Z M344.073394,66 L341,66 L341,56 L343.798165,56 C349.761468,56 351,57.981982 351,60.954955 C351,64.4684685 348.93578,66 344.073394,66 Z" id="CONSUMER" fill-rule="nonzero"></path>
            <path d="M229.84,41 C234.432,41 237.179,40.549 239.639,39.319 C244.313,37.023 247.06,32.021 247.06,25.912 C247.06,20.172 244.682,15.416 240.459,12.874 C238.081,11.439 234.473,10.701 229.717,10.701 L222.788,10.701 L222.788,41 L229.84,41 Z M229.635,35.629 L228.405,35.629 L228.405,16.072 L229.512,16.072 C233.079,16.072 235.006,16.4 236.769,17.302 C239.639,18.778 241.402,22.017 241.402,25.912 C241.402,29.561 239.721,32.8 237.015,34.276 C235.334,35.219 232.997,35.629 229.635,35.629 Z M256.496041,41 L256.496041,29.397 L264.450041,41 L271.379041,41 L263.179041,29.807 C268.632041,28.454 271.092041,25.133 271.092041,20.418 C271.092041,17.343 269.985041,14.719 267.894041,12.956 C265.926041,11.275 263.753041,10.701 259.612041,10.701 L250.879041,10.701 L250.879041,41 L256.496041,41 Z M259.243041,25.174 L256.496041,25.174 L256.496041,16.072 L258.997041,16.072 C264.327041,16.072 265.434041,17.876 265.434041,20.582 C265.434041,23.78 263.589041,25.174 259.243041,25.174 Z M279.667082,41 L279.667082,10.701 L274.050082,10.701 L274.050082,41 L279.667082,41 Z M298.861123,41 L310.587123,10.701 L304.683123,10.701 L296.524123,33.743 L288.365123,10.701 L282.461123,10.701 L294.269123,41 L298.861123,41 Z M329.289164,41 L329.289164,35.629 L318.629164,35.629 L318.629164,28.577 L328.838164,28.577 L328.838164,23.206 L318.629164,23.206 L318.629164,16.072 L329.289164,16.072 L329.289164,10.701 L313.012164,10.701 L313.012164,41 L329.289164,41 Z M339.340205,41 L339.340205,18.983 L352.009205,41 L358.282205,41 L358.282205,10.701 L352.665205,10.701 L352.665205,32.759 L340.119205,10.701 L333.723205,10.701 L333.723205,41 L339.340205,41 Z" id="DRIVEN" fill-rule="nonzero"></path>
            <path d="M118.405,41 L118.405,28.577 L127.753,28.577 L127.753,23.206 L118.405,23.206 L118.405,16.072 L128.204,16.072 L128.204,10.701 L112.788,10.701 L112.788,41 L118.405,41 Z M132.794041,41 L136.156041,33.169 L146.939041,33.169 L150.178041,41 L156.369041,41 L143.659041,10.701 L139.231041,10.701 L126.603041,41 L132.794041,41 Z M144.684041,27.798 L138.206041,27.798 L141.445041,18.614 L144.684041,27.798 Z M163.952082,41 L163.952082,10.701 L158.335082,10.701 L158.335082,41 L163.952082,41 Z M177.439123,41 L177.439123,16.072 L183.056123,16.072 L183.056123,10.701 L166.205123,10.701 L166.205123,16.072 L171.822123,16.072 L171.822123,41 L177.439123,41 Z M190.434164,41 L190.434164,28.29 L201.258164,28.29 L201.258164,41 L206.875164,41 L206.875164,10.701 L201.258164,10.701 L201.258164,22.919 L190.434164,22.919 L190.434164,10.701 L184.817164,10.701 L184.817164,41 L190.434164,41 Z" id="FAITH" fill-rule="nonzero"></path>
            <path d="M96,0 L96,96 L0,96 L0,0 L96,0 Z M53.2898551,12 L44.7101449,12 L44.71,44.742 L12,44.7426471 L12,53.3308824 L44.71,53.33 L44.7101449,85 L53.2898551,85 L53.289,53.33 L86,53.3308824 L86,44.7426471 L53.289,44.742 L53.2898551,12 Z" id="CROSS"></path>
        </g>
    </g>
</svg>